<svg width="25" height="25" viewBox="0 0 25 25" fill="none" xmlns="http://www.w3.org/2000/svg">
<path d="M25 25H19.4444V15.625C19.4444 14.1547 17.7946 12.9247 16.3243 12.9247C14.854 12.9247 13.8889 14.1547 13.8889 15.625V25H8.33334V8.33333H13.8889V11.1111C14.8088 9.62301 17.1617 8.66288 18.7847 8.66288C22.2174 8.66288 25 11.4981 25 14.9306V25ZM5.55555 25H0V8.33333H5.55555V25ZM2.77779 0C4.31191 0 5.55557 1.24365 5.55557 2.77778C5.55557 4.3119 4.31191 5.55556 2.77779 5.55556C1.24367 5.55556 1.39077e-05 4.3119 1.39077e-05 2.77778C1.39077e-05 1.24365 1.24367 0 2.77779 0Z" fill="#151515"/>
</svg>
